<svg width="137" height="62" viewBox="0 0 137 62" fill="none" xmlns="http://www.w3.org/2000/svg">
<path d="M34.066 26.8H36.926V34.21H39.994V26.8H42.854V45H39.994V36.81H36.926V45H34.066V26.8ZM48.494 26.8H52.368L55.332 45H52.472L51.952 41.386V41.438H48.702L48.182 45H45.53L48.494 26.8ZM51.614 38.968L50.34 29.972H50.288L49.04 38.968H51.614ZM58.0195 26.8H61.6075L64.3895 37.694H64.4415V26.8H66.9895V45H64.0515L60.6195 31.714H60.5675V45H58.0195V26.8ZM70.4152 26.8H74.7832C76.2046 26.8 77.2706 27.1813 77.9812 27.944C78.6919 28.7067 79.0472 29.8247 79.0472 31.298V40.502C79.0472 41.9753 78.6919 43.0933 77.9812 43.856C77.2706 44.6187 76.2046 45 74.7832 45H70.4152V26.8ZM74.7312 42.4C75.1992 42.4 75.5546 42.2613 75.7972 41.984C76.0572 41.7067 76.1872 41.256 76.1872 40.632V31.168C76.1872 30.544 76.0572 30.0933 75.7972 29.816C75.5546 29.5387 75.1992 29.4 74.7312 29.4H73.2752V42.4H74.7312ZM84.4467 37.252L80.9887 26.8H84.0307L85.9807 33.482H86.0327L87.9827 26.8H90.7647L87.3067 37.252V45H84.4467V37.252ZM96.9521 45.26C95.5654 45.26 94.5081 44.87 93.7801 44.09C93.0521 43.2927 92.6881 42.1573 92.6881 40.684V31.116C92.6881 29.6427 93.0521 28.516 93.7801 27.736C94.5081 26.9387 95.5654 26.54 96.9521 26.54C98.3387 26.54 99.3961 26.9387 100.124 27.736C100.852 28.516 101.216 29.6427 101.216 31.116V32.676H98.5121V30.934C98.5121 29.738 98.0181 29.14 97.0301 29.14C96.0421 29.14 95.5481 29.738 95.5481 30.934V40.892C95.5481 42.0707 96.0421 42.66 97.0301 42.66C98.0181 42.66 98.5121 42.0707 98.5121 40.892V37.33H97.0821V34.73H101.216V40.684C101.216 42.1573 100.852 43.2927 100.124 44.09C99.3961 44.87 98.3387 45.26 96.9521 45.26ZM108.486 45.26C107.082 45.26 106.008 44.8613 105.262 44.064C104.517 43.2667 104.144 42.14 104.144 40.684V31.116C104.144 29.66 104.517 28.5333 105.262 27.736C106.008 26.9387 107.082 26.54 108.486 26.54C109.89 26.54 110.965 26.9387 111.71 27.736C112.456 28.5333 112.828 29.66 112.828 31.116V40.684C112.828 42.14 112.456 43.2667 111.71 44.064C110.965 44.8613 109.89 45.26 108.486 45.26ZM108.486 42.66C109.474 42.66 109.968 42.062 109.968 40.866V30.934C109.968 29.738 109.474 29.14 108.486 29.14C107.498 29.14 107.004 29.738 107.004 30.934V40.866C107.004 42.062 107.498 42.66 108.486 42.66Z" fill="#323232"/>
<path d="M62.8125 55.375C62.7422 55.6562 62.6719 55.9316 62.6016 56.2012C62.543 56.459 62.4668 56.7637 62.373 57.1152C62.291 57.4668 62.1738 57.918 62.0215 58.4688H61.8633C62.0859 57.8828 62.3496 57.291 62.6543 56.6934C62.9707 56.0957 63.3223 55.5449 63.709 55.041C64.0957 54.5371 64.5 54.1328 64.9219 53.8281C65.3438 53.5117 65.7773 53.3535 66.2227 53.3535C66.5508 53.3535 66.8027 53.4473 66.9785 53.6348C67.166 53.8223 67.2598 54.0801 67.2598 54.4082C67.2598 54.5957 67.2129 54.8887 67.1191 55.2871C67.0254 55.6738 66.9082 56.1191 66.7676 56.623C66.627 57.1152 66.4863 57.6074 66.3457 58.0996C66.2051 58.5918 66.0879 59.0371 65.9941 59.4355C65.9004 59.8223 65.8535 60.1035 65.8535 60.2793C66.1113 60.1387 66.3574 59.9629 66.5918 59.752C66.8262 59.541 67.0605 59.2891 67.2949 58.9961L67.6992 59.4707C67.4062 59.8223 67.1133 60.1211 66.8203 60.3672C66.5391 60.6133 66.2695 60.8066 66.0117 60.9473C65.7656 61.0762 65.5371 61.1406 65.3262 61.1406C65.127 61.1406 64.9746 61.082 64.8691 60.9648C64.7637 60.8359 64.7109 60.6777 64.7109 60.4902C64.7109 60.3379 64.7578 60.0684 64.8516 59.6816C64.9453 59.2832 65.0625 58.8379 65.2031 58.3457C65.3438 57.8535 65.4844 57.3555 65.625 56.8516C65.7656 56.3477 65.8828 55.8965 65.9766 55.498C66.082 55.0996 66.1348 54.8184 66.1348 54.6543C66.1348 54.4082 66.0059 54.2852 65.748 54.2852C65.4902 54.2852 65.1973 54.4258 64.8691 54.707C64.541 54.9883 64.207 55.3691 63.8672 55.8496C63.5273 56.3301 63.1934 56.8633 62.8652 57.4492C62.5488 58.0352 62.2676 58.6387 62.0215 59.2598C61.7754 59.8691 61.5879 60.4492 61.459 61H60.334C60.6152 60.1094 60.8555 59.2715 61.0547 58.4863C61.2656 57.6895 61.4414 56.9863 61.582 56.377C61.7227 55.7559 61.834 55.2637 61.916 54.9004L63.0059 50.1719L61.7402 49.9961L61.8281 49.5391L64.166 48.8184L64.4121 49.0469C64.3301 49.3516 64.2246 49.7617 64.0957 50.2773C63.9668 50.7812 63.8262 51.3379 63.6738 51.9473C63.5215 52.5566 63.3691 53.1719 63.2168 53.793L62.8125 55.375ZM70.3852 61.1406C69.975 61.1406 69.5941 61.0352 69.2426 60.8242C68.9027 60.6133 68.6273 60.3086 68.4164 59.9102C68.2055 59.5 68.1 59.0254 68.1 58.4863C68.1 57.8652 68.1996 57.25 68.3988 56.6406C68.6098 56.0312 68.8969 55.4805 69.2602 54.9883C69.6234 54.4844 70.0512 54.0859 70.5434 53.793C71.0473 53.5 71.5805 53.3535 72.143 53.3535C72.5531 53.3535 72.934 53.459 73.2855 53.6699C73.6371 53.8809 73.9184 54.1855 74.1293 54.584C74.352 54.9824 74.4633 55.457 74.4633 56.0078C74.4633 56.6289 74.3578 57.2441 74.1469 57.8535C73.9359 58.4629 73.643 59.0137 73.268 59.5059C72.9047 59.998 72.477 60.3965 71.9848 60.7012C71.4926 60.9941 70.9594 61.1406 70.3852 61.1406ZM70.7367 60.4023C71.1234 60.4023 71.4691 60.2793 71.7738 60.0332C72.0785 59.7871 72.3363 59.4648 72.5473 59.0664C72.7699 58.668 72.9398 58.2227 73.057 57.7305C73.1742 57.2383 73.2328 56.7402 73.2328 56.2363C73.2328 55.5684 73.0922 55.041 72.8109 54.6543C72.5414 54.2559 72.2074 54.0566 71.809 54.0566C71.434 54.0566 71.0941 54.1797 70.7895 54.4258C70.4848 54.6719 70.2211 55 69.9984 55.4102C69.7875 55.8086 69.6234 56.2598 69.5062 56.7637C69.3891 57.2559 69.3305 57.7598 69.3305 58.2754C69.3305 58.9668 69.4652 59.4941 69.7348 59.8574C70.016 60.2207 70.35 60.4023 70.7367 60.4023ZM83.7586 61.1406C83.5594 61.1406 83.407 61.0762 83.3016 60.9473C83.1961 60.8184 83.1434 60.6543 83.1434 60.4551C83.1434 60.3145 83.1902 60.0508 83.284 59.6641C83.3777 59.2773 83.4949 58.8379 83.6355 58.3457C83.7762 57.8535 83.9168 57.3555 84.0574 56.8516C84.198 56.3477 84.3152 55.8965 84.409 55.498C84.5027 55.0996 84.5496 54.8184 84.5496 54.6543C84.5496 54.4082 84.4441 54.2852 84.2332 54.2852C83.9988 54.2852 83.7293 54.4258 83.4246 54.707C83.1316 54.9883 82.8152 55.3691 82.4754 55.8496C82.1355 56.3301 81.8074 56.8633 81.491 57.4492C81.1746 58.0352 80.8934 58.6387 80.6473 59.2598C80.4012 59.8691 80.2195 60.4492 80.1023 61H78.9949C79.1121 60.6016 79.241 60.1504 79.3816 59.6465C79.5223 59.1426 79.657 58.6328 79.7859 58.1172C79.9266 57.5898 80.0496 57.0918 80.1551 56.623C80.2723 56.1426 80.3602 55.7266 80.4187 55.375C80.4891 55.0234 80.5242 54.7832 80.5242 54.6543C80.5242 54.4082 80.4129 54.2852 80.1902 54.2852C79.9676 54.2852 79.698 54.4258 79.3816 54.707C79.077 54.9883 78.7547 55.3691 78.4148 55.8496C78.0867 56.3301 77.7645 56.8633 77.448 57.4492C77.1434 58.0352 76.868 58.6387 76.6219 59.2598C76.3758 59.8691 76.1941 60.4492 76.077 61H74.952C75.1512 60.332 75.3445 59.6523 75.532 58.9609C75.7195 58.2695 75.8836 57.6133 76.0242 56.9922C76.1648 56.3711 76.2762 55.8145 76.3582 55.3223C76.4402 54.8301 76.4812 54.4551 76.4812 54.1973C76.2117 54.3379 75.9598 54.5195 75.7254 54.7422C75.491 54.9531 75.2566 55.2285 75.0223 55.5684L74.6355 55.0234C74.9285 54.6719 75.2156 54.373 75.4969 54.127C75.7898 53.8691 76.0652 53.6758 76.323 53.5469C76.5809 53.418 76.8094 53.3535 77.0086 53.3535C77.2195 53.3535 77.366 53.418 77.448 53.5469C77.5301 53.6641 77.5711 53.8281 77.5711 54.0391C77.5711 54.2383 77.5477 54.5137 77.5008 54.8652C77.4539 55.2168 77.3602 55.6797 77.2195 56.2539C77.0906 56.8281 76.9031 57.5664 76.657 58.4688H76.4812C76.7039 57.8711 76.9676 57.2734 77.2723 56.6758C77.577 56.0664 77.9109 55.5156 78.2742 55.0234C78.6492 54.5195 79.0301 54.1152 79.4168 53.8105C79.8152 53.5059 80.2137 53.3535 80.6121 53.3535C80.9285 53.3535 81.1805 53.4473 81.368 53.6348C81.5555 53.8223 81.6492 54.0684 81.6492 54.373C81.6492 54.584 81.6082 54.8711 81.5262 55.2344C81.4559 55.5859 81.3445 56.0312 81.1922 56.5703C81.0516 57.0977 80.8641 57.7305 80.6297 58.4688H80.5418C80.741 57.8945 80.993 57.3086 81.2977 56.7109C81.6023 56.1133 81.9363 55.5625 82.2996 55.0586C82.6746 54.543 83.0613 54.1328 83.4598 53.8281C83.8582 53.5117 84.2508 53.3535 84.6375 53.3535C84.9656 53.3535 85.2234 53.4473 85.4109 53.6348C85.5984 53.8223 85.6922 54.0684 85.6922 54.373C85.6922 54.5605 85.6453 54.8594 85.5516 55.2695C85.4578 55.668 85.3406 56.1191 85.2 56.623C85.0594 57.1152 84.9187 57.6074 84.7781 58.0996C84.6375 58.5918 84.5203 59.0371 84.4266 59.4355C84.3328 59.8223 84.2859 60.1035 84.2859 60.2793C84.5437 60.1387 84.7898 59.9629 85.0242 59.752C85.2586 59.541 85.493 59.2891 85.7273 58.9961L86.1316 59.4707C85.8387 59.8223 85.5457 60.1211 85.2527 60.3672C84.9715 60.6133 84.702 60.8066 84.4441 60.9473C84.198 61.0762 83.9695 61.1406 83.7586 61.1406ZM88.9582 61.1406C88.302 61.1406 87.7395 60.9062 87.2707 60.4375C86.802 59.957 86.5676 59.3066 86.5676 58.4863C86.5676 57.8652 86.673 57.25 86.884 56.6406C87.0949 56.0312 87.382 55.4805 87.7453 54.9883C88.1203 54.4844 88.5598 54.0859 89.0637 53.793C89.5793 53.5 90.1359 53.3535 90.7336 53.3535C91.2844 53.3535 91.6945 53.4883 91.9641 53.7578C92.2336 54.0156 92.3684 54.3086 92.3684 54.6367C92.3684 54.9766 92.2629 55.2988 92.052 55.6035C91.8527 55.9082 91.548 56.2129 91.1379 56.5176C90.7277 56.8105 90.2238 57.1035 89.6262 57.3965C89.0402 57.6777 88.3605 57.959 87.5871 58.2402V57.5371C88.3488 57.2441 88.9934 56.9629 89.5207 56.6934C90.0598 56.4121 90.4699 56.1191 90.7512 55.8145C91.0441 55.498 91.1906 55.1699 91.1906 54.8301C91.1906 54.5723 91.1027 54.3789 90.927 54.25C90.7629 54.1211 90.552 54.0566 90.2941 54.0566C89.8488 54.0566 89.4328 54.2383 89.0461 54.6016C88.6711 54.9531 88.3664 55.4336 88.132 56.043C87.9094 56.6523 87.798 57.3555 87.798 58.1523C87.798 58.7852 87.9445 59.2832 88.2375 59.6465C88.5305 59.998 88.9113 60.1738 89.3801 60.1738C89.6613 60.1738 89.9895 60.0801 90.3645 59.8926C90.7512 59.6934 91.1145 59.3535 91.4543 58.873L91.841 59.4004C91.4543 59.9395 91.0031 60.3672 90.4875 60.6836C89.9836 60.9883 89.4738 61.1406 88.9582 61.1406ZM96.123 61.1406C95.7832 61.1406 95.4609 61.0879 95.1562 60.9824C94.8633 60.8652 94.623 60.707 94.4355 60.5078C94.2598 60.3086 94.1719 60.0977 94.1719 59.875C94.1719 59.7344 94.1953 59.6055 94.2422 59.4883C94.2891 59.3711 94.3594 59.2598 94.4531 59.1543C94.7695 59.541 95.1035 59.8398 95.4551 60.0508C95.8066 60.25 96.1465 60.3496 96.4746 60.3496C96.8145 60.3496 97.084 60.2617 97.2832 60.0859C97.4941 59.9102 97.5996 59.6523 97.5996 59.3125C97.5996 59.1016 97.5293 58.8789 97.3887 58.6445C97.2598 58.4102 97.0195 58.1289 96.668 57.8008C96.2695 57.4141 95.9648 57.0918 95.7539 56.834C95.543 56.5762 95.4023 56.3477 95.332 56.1484C95.2617 55.9492 95.2266 55.7559 95.2266 55.5684C95.2266 55.1465 95.3379 54.7715 95.5605 54.4434C95.7832 54.1152 96.0879 53.8516 96.4746 53.6523C96.8613 53.4531 97.3008 53.3535 97.793 53.3535C98.0508 53.3535 98.3086 53.3945 98.5664 53.4766C98.8242 53.5469 99.0352 53.6523 99.1992 53.793C99.375 53.9219 99.4629 54.0859 99.4629 54.2852C99.4629 54.4141 99.4395 54.5254 99.3926 54.6191C99.3457 54.7129 99.2754 54.8125 99.1816 54.918C98.9121 54.6484 98.6191 54.4434 98.3027 54.3027C97.9863 54.1621 97.6641 54.0918 97.3359 54.0918C96.9961 54.0918 96.7266 54.1914 96.5273 54.3906C96.3281 54.5898 96.2285 54.8477 96.2285 55.1641C96.2285 55.3047 96.2578 55.4512 96.3164 55.6035C96.375 55.7559 96.4746 55.9258 96.6152 56.1133C96.7676 56.3008 96.9668 56.5176 97.2129 56.7637C97.5996 57.1387 97.8926 57.4551 98.0918 57.7129C98.291 57.959 98.4258 58.1758 98.4961 58.3633C98.5664 58.5508 98.6016 58.7441 98.6016 58.9434C98.6016 59.3418 98.4844 59.7109 98.25 60.0508C98.0156 60.3789 97.7051 60.6426 97.3184 60.8418C96.9434 61.041 96.5449 61.1406 96.123 61.1406ZM101.621 61.1406C100.965 61.1406 100.403 60.9062 99.934 60.4375C99.4652 59.957 99.2309 59.3066 99.2309 58.4863C99.2309 57.8652 99.3363 57.25 99.5473 56.6406C99.7582 56.0312 100.045 55.4805 100.409 54.9883C100.784 54.4844 101.223 54.0859 101.727 53.793C102.243 53.5 102.799 53.3535 103.397 53.3535C103.948 53.3535 104.358 53.4883 104.627 53.7578C104.897 54.0156 105.032 54.3086 105.032 54.6367C105.032 54.9766 104.926 55.2988 104.715 55.6035C104.516 55.9082 104.211 56.2129 103.801 56.5176C103.391 56.8105 102.887 57.1035 102.289 57.3965C101.704 57.6777 101.024 57.959 100.25 58.2402V57.5371C101.012 57.2441 101.657 56.9629 102.184 56.6934C102.723 56.4121 103.133 56.1191 103.414 55.8145C103.707 55.498 103.854 55.1699 103.854 54.8301C103.854 54.5723 103.766 54.3789 103.59 54.25C103.426 54.1211 103.215 54.0566 102.957 54.0566C102.512 54.0566 102.096 54.2383 101.709 54.6016C101.334 54.9531 101.03 55.4336 100.795 56.043C100.573 56.6523 100.461 57.3555 100.461 58.1523C100.461 58.7852 100.608 59.2832 100.901 59.6465C101.194 59.998 101.575 60.1738 102.043 60.1738C102.325 60.1738 102.653 60.0801 103.028 59.8926C103.414 59.6934 103.778 59.3535 104.118 58.873L104.504 59.4004C104.118 59.9395 103.666 60.3672 103.151 60.6836C102.647 60.9883 102.137 61.1406 101.621 61.1406ZM109.774 54.5488C109.516 54.5488 109.264 54.6836 109.018 54.9531C108.772 55.2227 108.532 55.5742 108.298 56.0078C108.075 56.4297 107.852 56.8867 107.63 57.3789C107.313 58.0586 107.044 58.7383 106.821 59.418C106.598 60.0859 106.446 60.6133 106.364 61H105.204C105.403 60.332 105.591 59.6523 105.766 58.9609C105.954 58.2695 106.118 57.6133 106.259 56.9922C106.399 56.3711 106.511 55.8145 106.593 55.3223C106.675 54.8301 106.716 54.4551 106.716 54.1973C106.446 54.3379 106.194 54.5195 105.96 54.7422C105.725 54.9531 105.491 55.2285 105.257 55.5684L104.87 55.0234C105.163 54.6719 105.45 54.373 105.731 54.127C106.024 53.8691 106.294 53.6758 106.54 53.5469C106.798 53.418 107.026 53.3535 107.225 53.3535C107.401 53.3535 107.53 53.4121 107.612 53.5293C107.706 53.6465 107.753 53.8164 107.753 54.0391C107.753 54.2383 107.723 54.5371 107.665 54.9355C107.618 55.334 107.501 55.8906 107.313 56.6055C107.138 57.3203 106.856 58.252 106.47 59.4004H106.382C106.804 58.2285 107.179 57.2559 107.507 56.4824C107.846 55.6973 108.151 55.0762 108.421 54.6191C108.702 54.1621 108.977 53.8398 109.247 53.6523C109.516 53.4531 109.804 53.3535 110.108 53.3535C110.343 53.3535 110.524 53.418 110.653 53.5469C110.794 53.6641 110.864 53.8281 110.864 54.0391C110.864 54.168 110.841 54.3027 110.794 54.4434C110.747 54.584 110.665 54.7246 110.548 54.8652C110.43 54.748 110.302 54.666 110.161 54.6191C110.02 54.5723 109.891 54.5488 109.774 54.5488ZM112.073 61.0703L111.898 58.3105C111.851 57.4316 111.786 56.6582 111.704 55.9902C111.634 55.3223 111.552 54.7305 111.458 54.2148C111.06 54.5078 110.696 54.9473 110.368 55.5332L109.929 55.041C110.187 54.6426 110.433 54.3203 110.667 54.0742C110.913 53.8164 111.136 53.6348 111.335 53.5293C111.546 53.4121 111.722 53.3535 111.862 53.3535C112.097 53.3535 112.267 53.418 112.372 53.5469C112.478 53.6758 112.56 53.9277 112.618 54.3027C112.677 54.6777 112.73 55.1934 112.777 55.8496C112.835 56.4941 112.894 57.2324 112.952 58.0645L113.075 60.2441L112.741 60.2793C113.398 59.623 113.937 58.9551 114.359 58.2754C114.792 57.5957 115.114 56.9453 115.325 56.3242C115.536 55.7031 115.642 55.1582 115.642 54.6895C115.642 54.4199 115.618 54.1914 115.571 54.0039C115.536 53.8164 115.484 53.6582 115.413 53.5293C115.484 53.459 115.566 53.4121 115.659 53.3887C115.765 53.3652 115.864 53.3535 115.958 53.3535C116.193 53.3535 116.38 53.4297 116.521 53.582C116.673 53.7344 116.749 54.0332 116.749 54.4785C116.749 54.9004 116.65 55.3867 116.45 55.9375C116.251 56.4883 115.97 57.0625 115.607 57.6602C115.243 58.2461 114.821 58.832 114.341 59.418C113.861 60.0039 113.333 60.5547 112.759 61.0703H112.073ZM117.906 61.1406C117.707 61.1406 117.548 61.0762 117.431 60.9473C117.326 60.8184 117.273 60.6543 117.273 60.4551C117.273 60.291 117.32 60.0039 117.414 59.5938C117.507 59.1836 117.625 58.7148 117.765 58.1875C117.918 57.6602 118.064 57.1328 118.205 56.6055C118.345 56.0664 118.463 55.5859 118.556 55.1641C118.662 54.7305 118.714 54.4141 118.714 54.2148C118.457 54.3438 118.205 54.5195 117.959 54.7422C117.724 54.9531 117.49 55.2285 117.255 55.5684L116.869 55.0234C117.162 54.6836 117.449 54.3906 117.73 54.1445C118.011 53.8867 118.275 53.6934 118.521 53.5645C118.779 53.4238 119.013 53.3535 119.224 53.3535C119.435 53.3535 119.593 53.418 119.699 53.5469C119.804 53.6641 119.857 53.8398 119.857 54.0742C119.857 54.2383 119.81 54.5312 119.716 54.9531C119.623 55.3633 119.505 55.8379 119.365 56.377C119.224 56.9043 119.078 57.4375 118.925 57.9766C118.785 58.5039 118.662 58.9785 118.556 59.4004C118.463 59.8223 118.416 60.1152 118.416 60.2793C118.685 60.1387 118.937 59.9629 119.171 59.752C119.406 59.541 119.64 59.2891 119.875 58.9961L120.261 59.4707C119.968 59.8223 119.681 60.1211 119.4 60.3672C119.119 60.6133 118.849 60.8066 118.591 60.9473C118.334 61.0762 118.105 61.1406 117.906 61.1406ZM119.769 51.2617C119.582 51.2617 119.412 51.1914 119.259 51.0508C119.119 50.9102 119.048 50.7402 119.048 50.541C119.048 50.2949 119.101 50.084 119.207 49.9082C119.324 49.7324 119.464 49.5977 119.629 49.5039C119.804 49.4102 119.98 49.3633 120.156 49.3633C120.343 49.3633 120.502 49.4336 120.63 49.5742C120.771 49.7031 120.841 49.8672 120.841 50.0664C120.841 50.3242 120.789 50.5469 120.683 50.7344C120.578 50.9102 120.443 51.0449 120.279 51.1387C120.127 51.2207 119.957 51.2617 119.769 51.2617ZM124.23 54.0918C123.867 54.0918 123.498 54.2559 123.123 54.584C122.76 54.9121 122.461 55.3809 122.227 55.9902C121.992 56.5879 121.875 57.3086 121.875 58.1523C121.887 58.7852 122.033 59.2773 122.314 59.6289C122.607 59.9805 122.971 60.1562 123.404 60.1562C123.627 60.1562 123.92 60.0684 124.283 59.8926C124.646 59.7051 125.004 59.3652 125.355 58.873L125.742 59.4004C125.367 59.9395 124.928 60.3672 124.424 60.6836C123.92 60.9883 123.475 61.1406 123.088 61.1406C122.607 61.1406 122.18 61.0352 121.805 60.8242C121.441 60.6133 121.154 60.3086 120.943 59.9102C120.732 59.5 120.627 59.0254 120.627 58.4863C120.627 57.8535 120.732 57.2324 120.943 56.623C121.154 56.002 121.447 55.4512 121.822 54.9707C122.197 54.4785 122.643 54.0859 123.158 53.793C123.686 53.5 124.26 53.3535 124.881 53.3535C125.314 53.3535 125.666 53.4355 125.936 53.5996C126.217 53.752 126.357 53.9746 126.357 54.2676C126.357 54.4082 126.322 54.543 126.252 54.6719C126.193 54.7891 126.1 54.9004 125.971 55.0059C125.678 54.7129 125.379 54.4902 125.074 54.3379C124.781 54.1738 124.5 54.0918 124.23 54.0918ZM128.287 61.1406C127.631 61.1406 127.069 60.9062 126.6 60.4375C126.131 59.957 125.897 59.3066 125.897 58.4863C125.897 57.8652 126.002 57.25 126.213 56.6406C126.424 56.0312 126.711 55.4805 127.075 54.9883C127.45 54.4844 127.889 54.0859 128.393 53.793C128.909 53.5 129.465 53.3535 130.063 53.3535C130.614 53.3535 131.024 53.4883 131.293 53.7578C131.563 54.0156 131.698 54.3086 131.698 54.6367C131.698 54.9766 131.592 55.2988 131.381 55.6035C131.182 55.9082 130.877 56.2129 130.467 56.5176C130.057 56.8105 129.553 57.1035 128.955 57.3965C128.37 57.6777 127.69 57.959 126.916 58.2402V57.5371C127.678 57.2441 128.323 56.9629 128.85 56.6934C129.389 56.4121 129.799 56.1191 130.08 55.8145C130.373 55.498 130.52 55.1699 130.52 54.8301C130.52 54.5723 130.432 54.3789 130.256 54.25C130.092 54.1211 129.881 54.0566 129.623 54.0566C129.178 54.0566 128.762 54.2383 128.375 54.6016C128 54.9531 127.696 55.4336 127.461 56.043C127.239 56.6523 127.127 57.3555 127.127 58.1523C127.127 58.7852 127.274 59.2832 127.567 59.6465C127.86 59.998 128.241 60.1738 128.709 60.1738C128.991 60.1738 129.319 60.0801 129.694 59.8926C130.08 59.6934 130.444 59.3535 130.784 58.873L131.17 59.4004C130.784 59.9395 130.332 60.3672 129.817 60.6836C129.313 60.9883 128.803 61.1406 128.287 61.1406ZM132.995 61.1406C132.655 61.1406 132.333 61.0879 132.028 60.9824C131.735 60.8652 131.495 60.707 131.307 60.5078C131.132 60.3086 131.044 60.0977 131.044 59.875C131.044 59.7344 131.067 59.6055 131.114 59.4883C131.161 59.3711 131.231 59.2598 131.325 59.1543C131.641 59.541 131.975 59.8398 132.327 60.0508C132.679 60.25 133.018 60.3496 133.346 60.3496C133.686 60.3496 133.956 60.2617 134.155 60.0859C134.366 59.9102 134.471 59.6523 134.471 59.3125C134.471 59.1016 134.401 58.8789 134.261 58.6445C134.132 58.4102 133.891 58.1289 133.54 57.8008C133.141 57.4141 132.837 57.0918 132.626 56.834C132.415 56.5762 132.274 56.3477 132.204 56.1484C132.134 55.9492 132.098 55.7559 132.098 55.5684C132.098 55.1465 132.21 54.7715 132.432 54.4434C132.655 54.1152 132.96 53.8516 133.346 53.6523C133.733 53.4531 134.173 53.3535 134.665 53.3535C134.923 53.3535 135.18 53.3945 135.438 53.4766C135.696 53.5469 135.907 53.6523 136.071 53.793C136.247 53.9219 136.335 54.0859 136.335 54.2852C136.335 54.4141 136.311 54.5254 136.264 54.6191C136.218 54.7129 136.147 54.8125 136.054 54.918C135.784 54.6484 135.491 54.4434 135.175 54.3027C134.858 54.1621 134.536 54.0918 134.208 54.0918C133.868 54.0918 133.598 54.1914 133.399 54.3906C133.2 54.5898 133.1 54.8477 133.1 55.1641C133.1 55.3047 133.13 55.4512 133.188 55.6035C133.247 55.7559 133.346 55.9258 133.487 56.1133C133.639 56.3008 133.839 56.5176 134.085 56.7637C134.471 57.1387 134.764 57.4551 134.964 57.7129C135.163 57.959 135.298 58.1758 135.368 58.3633C135.438 58.5508 135.473 58.7441 135.473 58.9434C135.473 59.3418 135.356 59.7109 135.122 60.0508C134.887 60.3789 134.577 60.6426 134.19 60.8418C133.815 61.041 133.417 61.1406 132.995 61.1406Z" fill="#323232"/>
<line y1="-1.5" x2="33" y2="-1.5" transform="matrix(-0.830599 -0.556871 0.825239 -0.564784 63.4098 18.3768)" stroke="#8056EB" stroke-width="3"/>
<line y1="-1.5" x2="43.3456" y2="-1.5" transform="matrix(-0.83055 0.556944 -0.825289 -0.564711 36.0006 0)" stroke="#8056EB" stroke-width="3"/>
<line x1="9.5" y1="61" x2="9.5" y2="19" stroke="#8056EB" stroke-width="3"/>
<line x1="11" y1="59.5" x2="56" y2="59.5" stroke="#8056EB" stroke-width="3"/>
</svg>
