<?xml version="1.0" encoding="UTF-8"?>
<svg xmlns="http://www.w3.org/2000/svg" width="218" height="31" viewBox="0 0 218 31" fill="none">
  <path d="M103.161 0.884766L87.5893 21.9202L72.0179 0.884766V29.0618H75.9108V12.6764L87.5893 28.4535L99.2679 12.6764V29.0618H103.161V0.884766ZM116.786 29.0618H112.893V1.93683H125.545C127.868 1.93683 130.096 2.85541 131.738 4.49049C133.381 6.12557 134.304 8.34322 134.304 10.6556C134.304 12.9679 133.381 15.1856 131.738 16.8207C130.096 18.4557 127.868 19.3743 125.545 19.3743H116.786V29.0618ZM116.786 15.4993H125.545C126.835 15.4993 128.073 14.989 128.986 14.0806C129.898 13.1722 130.411 11.9402 130.411 10.6556C130.411 9.37094 129.898 8.13891 128.986 7.23053C128.073 6.32215 126.835 5.81183 125.545 5.81183H116.786V15.4993ZM161.287 29.0618H165.715L150.848 1.74308L135.983 29.0618H140.412L143.574 23.2493H158.124L161.287 29.0618ZM145.68 19.3743L150.848 9.88058L156.016 19.3743H145.68ZM188.804 21.4765C188.804 26.0703 184.57 29.5365 178.955 29.5365C177.135 29.5011 175.345 29.075 173.707 28.2876C172.068 27.5001 170.619 26.3697 169.46 24.9737L172.204 22.3096C172.998 23.3503 174.017 24.1998 175.186 24.7951C176.354 25.3905 177.642 25.7164 178.955 25.7487C182.458 25.7487 184.911 23.9933 184.911 21.4862C184.911 19.3356 183.439 17.8902 180.415 17.0629L177.125 16.3131C170.118 14.6003 170.118 10.4173 170.118 9.04164C170.118 4.71714 173.621 1.81089 178.848 1.81089C180.532 1.80555 182.198 2.15694 183.735 2.84174C185.273 3.52654 186.646 4.52907 187.764 5.78276L185.02 8.45264C183.416 6.73545 181.2 5.71169 178.848 5.60064C175.774 5.60064 174.011 6.8542 174.011 9.04358C174.011 9.69652 174.26 11.8762 177.462 12.5621L180.446 13.2305C185.915 14.5054 188.804 17.3593 188.804 21.4765ZM216.054 21.4765C216.054 26.0703 211.82 29.5365 206.205 29.5365C204.385 29.5011 202.595 29.075 200.957 28.2876C199.318 27.5001 197.869 26.3697 196.71 24.9737L199.454 22.3096C200.248 23.3503 201.267 24.1998 202.436 24.7951C203.604 25.3905 204.892 25.7164 206.205 25.7487C209.708 25.7487 212.161 23.9933 212.161 21.4862C212.161 19.3356 210.689 17.8902 207.665 17.0629L204.375 16.3131C197.368 14.6003 197.368 10.4173 197.368 9.04164C197.368 4.71714 200.871 1.81089 206.098 1.81089C207.782 1.80555 209.448 2.15694 210.985 2.84174C212.523 3.52654 213.896 4.52907 215.014 5.78276L212.27 8.45264C210.666 6.73545 208.45 5.71169 206.098 5.60064C203.024 5.60064 201.261 6.8542 201.261 9.04358C201.261 9.69652 201.51 11.8762 204.712 12.5621L207.696 13.2305C213.165 14.5054 216.054 17.3593 216.054 21.4765ZM24.1143 23.0265C22.6172 24.5169 20.7097 25.5318 18.633 25.943C16.5564 26.3542 14.4039 26.1432 12.4477 25.3367C10.4915 24.5302 8.81954 23.1643 7.6432 21.4119C6.46686 19.6595 5.83898 17.5992 5.83898 15.4916C5.83898 13.384 6.46686 11.3237 7.6432 9.57123C8.81954 7.81881 10.4915 6.45297 12.4477 5.64644C14.4039 4.83991 16.5564 4.62891 18.633 5.04012C20.7097 5.45133 22.6172 6.46629 24.1143 7.95664L24.8034 8.64252L27.5556 5.9087L26.8608 5.23058C24.8191 3.19846 22.218 1.8146 19.3862 1.25399C16.5545 0.69339 13.6193 0.981221 10.9519 2.08109C8.28448 3.18096 6.00462 5.04346 4.4006 7.43309C2.79657 9.82272 1.94043 12.6321 1.94043 15.5061C1.94043 18.3801 2.79657 21.1895 4.4006 23.5791C6.00462 25.9688 8.28448 27.8313 10.9519 28.9311C13.6193 30.031 16.5545 30.3188 19.3862 29.7582C22.218 29.1976 24.8191 27.8138 26.8608 25.7816L27.5498 25.0977L24.7975 22.3561L24.1143 23.0265ZM49.634 0.968078C46.7467 0.968078 43.9243 1.82032 41.5236 3.41704C39.123 5.01375 37.2519 7.28322 36.147 9.93846C35.0421 12.5937 34.753 15.5154 35.3163 18.3342C35.8795 21.153 37.2699 23.7422 39.3115 25.7745C41.3531 27.8067 43.9542 29.1907 46.786 29.7514C49.6178 30.3121 52.553 30.0243 55.2205 28.9244C57.8879 27.8246 60.1679 25.9621 61.7719 23.5725C63.376 21.1828 64.2322 18.3733 64.2322 15.4993C64.2322 13.5911 63.8546 11.7015 63.121 9.93846C62.3873 8.17545 61.312 6.57353 59.9565 5.22418C58.6009 3.87483 56.9916 2.80447 55.2205 2.0742C53.4493 1.34394 51.551 0.968078 49.634 0.968078ZM49.634 26.1556C47.5166 26.1556 45.4469 25.5306 43.6864 24.3597C41.9259 23.1888 40.5538 21.5245 39.7435 19.5773C38.9332 17.6301 38.7212 15.4875 39.1343 13.4204C39.5474 11.3533 40.567 9.45452 42.0641 7.96422C43.5613 6.47392 45.4688 5.45901 47.5455 5.04783C49.6221 4.63666 51.7746 4.84769 53.7307 5.65424C55.6869 6.46078 57.3588 7.82662 58.5351 9.57903C59.7115 11.3314 60.3393 13.3917 60.3393 15.4993C60.3393 18.3255 59.2114 21.036 57.2038 23.0344C55.1962 25.0329 52.4732 26.1556 49.634 26.1556ZM55.8762 12.0254L53.1239 9.28577L43.3918 18.9733L46.144 21.7129L55.8762 12.0254Z" fill="#B2C0D6"></path>
</svg>
