<?xml version="1.0" encoding="UTF-8"?>
<svg xmlns="http://www.w3.org/2000/svg" width="218" height="31" viewBox="0 0 218 31" fill="none">
  <g clip-path="url(#clip0_276_2)">
    <path d="M39.7733 14.7261C43.1147 14.2094 46.2406 11.3677 46.2406 7.8544C46.2406 2.4294 41.3901 0.0527344 36.2164 0.0527344C31.2042 0.0527344 26.9466 2.48107 25.4376 6.87273L27.3778 7.33773C28.5634 3.87607 31.7971 1.6544 36.0547 1.6544C40.4201 1.6544 44.0309 3.61773 44.0309 7.90607C44.0309 11.4194 40.959 13.9511 36.2164 13.9511H31.9049V15.6044H36.0547C41.7135 15.6044 45.2166 18.3944 45.2166 22.3211C45.2166 27.0744 40.6356 29.2444 35.7313 29.2444C31.0965 29.2444 27.3778 27.3327 26.1921 23.0961L24.252 23.7677C25.7071 28.6244 30.4497 31.0011 35.8391 31.0011C42.0908 31.0011 47.4801 28.0561 47.4801 22.4244C47.4801 18.0844 43.8693 15.2944 39.7733 14.7261Z" fill="#B2C0D6"></path>
    <path d="M11.8027 10.4376C7.54512 10.4376 5.01211 12.4526 3.71866 14.0542L4.74264 2.32591H20.4796L20.803 0.517578H3.01805L1.88628 16.0692L3.66477 16.4826C4.85043 14.1576 7.6529 12.1426 11.641 12.1426C16.4915 12.1426 20.264 15.4492 20.264 20.3576C20.264 26.0926 16.3837 29.2959 10.671 29.2959C6.30556 29.2959 2.91026 26.9192 1.88628 23.3542L0 23.9226C1.23955 28.3142 5.71273 30.9492 10.6171 30.9492C17.4616 30.9492 22.3659 26.9192 22.3659 20.3059C22.3659 14.4676 17.6771 10.4376 11.8027 10.4376Z" fill="#B2C0D6"></path>
    <path d="M67.6371 27.3842L56.9661 0.517578H54.8643L66.8826 30.4842H68.3916L73.5654 16.5342L72.5414 13.7959L67.6371 27.3842Z" fill="#B2C0D6"></path>
    <path d="M81.4877 27.3842L71.9485 0.517578H69.8467L80.7332 30.4842H82.2422L93.1826 0.517578H91.0808L81.4877 27.3842Z" fill="#B2C0D6"></path>
    <path d="M96.4697 0.466797H115.602V2.27513H98.6255V14.0035H112.314V15.7085H98.6255V28.8318H116.195V30.5885H96.4697V0.466797Z" fill="#B2C0D6"></path>
    <path d="M118.404 22.4242L120.452 22.0109C120.776 24.4909 123.363 29.2442 130.207 29.2442C135.65 29.2442 138.992 26.8676 138.992 22.5792C138.992 18.7042 135.866 16.9476 129.075 15.7592C122.5 14.6742 119.913 11.8842 119.913 7.64755C119.913 3.51422 123.416 -0.0507812 129.884 -0.0507812C135.812 -0.0507812 139.585 3.25589 140.285 7.69922L138.291 8.16422C137.59 4.39255 134.68 1.65422 129.722 1.65422C125.033 1.65422 122.015 4.23755 122.015 7.49255C122.015 10.6442 123.632 12.8142 130.099 13.8476C137.698 15.0359 141.201 17.7742 141.201 22.4759C141.201 27.6425 137.375 31.0009 130.153 31.0009C121.53 31.0009 118.889 25.2142 118.404 22.4242Z" fill="#B2C0D6"></path>
    <path d="M152.088 2.27513H142.333V0.466797H163.944V2.27513H154.19V30.5885H152.034V2.27513H152.088Z" fill="#B2C0D6"></path>
    <path d="M210.293 14.7261C213.634 14.2094 216.76 11.3677 216.76 7.8544C216.76 2.4294 211.91 0.0527344 206.736 0.0527344C201.724 0.0527344 197.466 2.48107 195.957 6.87274L197.898 7.33773C199.083 3.87607 202.317 1.6544 206.574 1.6544C210.94 1.6544 214.551 3.61773 214.551 7.90607C214.551 11.4194 211.479 13.9511 206.736 13.9511H202.425V15.6044H206.574C212.233 15.6044 215.736 18.3944 215.736 22.3211C215.736 27.0744 211.155 29.2444 206.251 29.2444C201.616 29.2444 197.898 27.3327 196.712 23.0961L194.718 23.7161C196.173 28.5727 200.916 30.9494 206.305 30.9494C212.557 30.9494 217.946 28.0044 217.946 22.3727C218 18.0844 214.389 15.2944 210.293 14.7261Z" fill="#B2C0D6"></path>
    <path d="M182.322 10.4376C178.065 10.4376 175.532 12.4526 174.238 14.0542L175.262 2.32591H190.999L191.323 0.517578H173.538L172.406 16.0692L174.184 16.4826C175.37 14.1576 178.173 12.1426 182.161 12.1426C187.011 12.1426 190.784 15.4492 190.784 20.3576C190.784 26.0926 186.903 29.2959 181.191 29.2959C176.825 29.2959 173.43 26.9192 172.406 23.3542L170.466 23.9226C171.705 28.3142 176.179 30.9492 181.083 30.9492C187.927 30.9492 192.832 26.9192 192.832 20.3059C192.939 14.4676 188.197 10.4376 182.322 10.4376Z" fill="#B2C0D6"></path>
  </g>
  <defs>
    <clipPath id="clip0_276_2">
      <rect width="218" height="31" fill="white"></rect>
    </clipPath>
  </defs>
</svg>
