<?xml version="1.0" encoding="UTF-8"?>
<svg xmlns="http://www.w3.org/2000/svg" width="178" height="32" viewBox="0 0 178 32" fill="none">
  <g clip-path="url(#clip0_298_14)">
    <path d="M24.9691 10.7818V10.5474C24.9691 7.49972 24.0096 4.92099 22.0905 3.16264C19.9314 1.16998 16.693 0.115003 12.8545 0.115003H0.0205078V31.8805H7.33741V21.5656H11.5355L17.7725 31.8805H26.0487L18.8519 20.1591C21.6107 18.8697 24.9693 16.291 24.9693 10.7816L24.9691 10.7818ZM17.6522 10.899C17.6522 13.8294 15.6132 15.5875 12.2548 15.5875H7.33692V6.32749H12.2548C15.7332 6.32749 17.6522 7.8513 17.6522 10.899ZM127.764 -0.00195312L115.529 31.881H122.846L125.365 25.0823H136.76L139.279 31.881H146.835L134.601 -0.00195312H127.764ZM134.481 19.1042H127.524L131.003 9.37548L134.481 19.1042ZM168.066 15.705L177.781 0.232449H169.745L163.988 10.313L158.35 0.232449H149.954L159.55 15.8224L149.474 31.9979H157.511L163.628 21.3313L169.745 31.9979H178.022L168.066 15.705ZM39.9611 25.7855V18.9869H53.0354V12.8918H39.9611V6.32754H54.7146V0.115053H32.7643V31.8805H46.438L49.7965 25.7855H39.9611ZM102.332 0.115053L95.0147 10.4299L87.5781 0.115053H87.458L80.0214 13.9466V31.8805H87.098V12.1883L94.7744 21.917V22.0342H95.1344L102.931 12.1881V31.8804H110.008V0.114876L102.332 0.115053Z" fill="#B2C0D6"></path>
    <path d="M71.0427 0.111328L53.8906 31.8765H62.7665L79.9186 0.111328H71.0427Z" fill="#B2C0D6"></path>
  </g>
  <defs>
    <clipPath id="clip0_298_14">
      <rect width="178" height="32" fill="white"></rect>
    </clipPath>
  </defs>
</svg>
