<?xml version="1.0" encoding="UTF-8"?>
<svg xmlns="http://www.w3.org/2000/svg" width="206" height="56" viewBox="0 0 206 56" fill="none">
  <path d="M9.99736 23.2575C15.1891 23.2575 19.0829 20.6589 19.0829 15.9814C19.0829 11.174 15.3189 9.87471 11.1655 8.9652C7.79087 8.18561 6.10355 7.79582 6.10355 6.23666C6.10355 4.93736 7.40149 4.15777 9.34839 4.15777C11.4251 4.15777 12.723 5.19722 12.9826 6.88631H18.434C18.0446 2.20882 14.4104 0 9.47819 0C4.54602 0 0.65221 2.07889 0.65221 6.88631C0.65221 11.5638 4.67582 12.7332 8.56963 13.6427C11.6847 14.4223 13.372 14.8121 13.372 16.5012C13.372 18.1903 11.5549 18.8399 9.73778 18.8399C7.1419 18.8399 5.58437 17.9304 5.32479 15.7216H0.00324045C0.133034 20.6589 4.02685 23.2575 9.99736 23.2575ZM28.9473 19.6195C26.7408 19.6195 25.5726 17.6705 25.5726 14.8121C25.5726 11.9536 26.7408 10.0046 28.9473 10.0046C31.1537 10.0046 32.3219 11.9536 32.3219 14.8121C32.3219 17.6705 31.1537 19.6195 28.9473 19.6195ZM28.9473 23.2575C33.49 23.5174 37.2541 20.0093 37.3839 15.4617C37.3839 15.2019 37.3839 14.942 37.3839 14.8121C37.5136 10.2645 34.0092 6.49652 29.5962 6.36659C29.3366 6.36659 29.077 6.36659 28.9473 6.36659C24.4045 6.10673 20.6405 9.61485 20.3809 14.1624C20.3809 14.4223 20.3809 14.5522 20.3809 14.8121C20.2511 19.3596 23.7555 23.1276 28.2983 23.2575C28.5579 23.2575 28.8175 23.2575 28.9473 23.2575ZM39.201 22.7378H44.3927V0.389791H39.201V22.7378ZM54.6464 19.6195C52.4399 19.6195 51.2718 17.6705 51.2718 14.8121C51.2718 11.9536 52.4399 10.0046 54.6464 10.0046C56.8529 10.0046 58.0211 11.9536 58.0211 14.8121C58.0211 17.6705 56.8529 19.6195 54.6464 19.6195ZM54.6464 23.2575C59.1892 23.5174 62.9532 20.0093 63.083 15.4617C63.083 15.2019 63.083 14.942 63.083 14.8121C63.2128 10.2645 59.7084 6.49652 55.2954 6.36659C55.0358 6.36659 54.7762 6.36659 54.6464 6.36659C50.1037 6.10673 46.3396 9.61485 46.08 14.1624C46.08 14.4223 46.08 14.5522 46.08 14.8121C45.9503 19.3596 49.4547 23.1276 53.9975 23.2575C54.2571 23.2575 54.3868 23.2575 54.6464 23.2575ZM67.8854 22.7378H72.558L74.5049 15.4617C74.8943 14.1624 75.2837 12.6032 75.2837 12.6032C75.2837 12.6032 75.673 14.1624 75.9326 15.4617L77.7497 22.7378H82.5521L87.4843 6.75638H82.4223L80.6052 13.3828C80.2158 14.6821 79.8264 16.5012 79.8264 16.5012C79.8264 16.5012 79.4371 14.6821 79.0477 13.2529L77.3604 6.75638H73.0772L71.3898 13.2529C71.0005 14.5522 70.6111 16.3712 70.6111 16.3712C70.6111 16.3712 70.2217 14.5522 69.8323 13.2529L68.145 6.62645H62.9532L67.8854 22.7378ZM93.7144 22.7378H104.747C106.694 22.8677 108.641 22.2181 110.198 21.1787C111.756 20.0093 112.534 18.1903 112.534 16.2413C112.664 13.7726 110.977 11.4339 108.511 10.7842V10.6543C110.458 10.1346 111.756 8.31555 111.626 6.23666C111.626 4.54756 110.977 2.9884 109.679 1.94896C108.121 0.909513 106.304 0.259861 104.487 0.389791H93.7144V22.7378ZM99.1657 18.3202V12.993H103.968C105.396 12.8631 106.694 13.9026 106.953 15.3318C106.953 15.4617 106.953 15.5916 106.953 15.7216C106.953 17.1508 105.785 18.3202 104.357 18.3202C104.228 18.3202 104.098 18.3202 103.968 18.3202H99.1657ZM99.1657 9.22506V4.80742H103.708C105.266 4.80742 106.304 5.58701 106.304 7.01624C106.304 8.44548 105.266 9.22506 103.579 9.22506H99.1657ZM119.803 23.2575C121.75 23.3875 123.567 22.478 124.605 20.7889H124.735V22.7378H129.537V6.75638H124.476V15.7216C124.735 17.2807 123.567 18.71 122.009 18.9698C121.88 18.9698 121.75 18.9698 121.62 18.9698C120.063 18.9698 119.284 18.0603 119.284 16.2413V6.75638H114.222V17.2807C114.222 20.7889 116.169 23.2575 119.803 23.2575ZM132.004 22.7378H137.065V6.75638H132.004V22.7378ZM132.004 4.54756H137.065V0.389791H132.004V4.54756ZM139.532 22.7378H144.723V0.389791H139.532V22.7378ZM153.42 23.2575C155.366 23.2575 157.184 22.348 158.092 20.6589V22.8677H162.894V0.389791H157.833V8.57541H157.703C156.794 7.01624 154.977 6.23666 153.29 6.23666C149.136 6.23666 146.281 9.74478 146.281 14.6821C146.411 20.1392 149.266 23.2575 153.42 23.2575ZM154.717 19.2297C152.771 19.2297 151.602 17.5406 151.602 14.6821C151.602 11.9536 152.771 10.1346 154.847 10.1346C157.054 10.1346 158.092 12.0835 158.092 14.8121C158.092 17.4107 156.794 19.2297 154.717 19.2297ZM165.49 22.7378H170.552V6.75638H165.49V22.7378ZM165.49 4.54756H170.552V0.389791H165.49V4.54756ZM172.889 22.7378H177.951V13.9026C177.951 11.9536 179.119 10.5244 180.806 10.5244C182.493 10.5244 183.272 11.6937 183.272 13.3828V22.7378H188.334V12.3434C188.334 8.83527 186.257 6.23666 182.753 6.23666C180.806 6.23666 178.859 7.14617 177.821 8.83527V6.75638H172.889V22.7378ZM198.069 28.1949C200.145 28.3248 202.222 27.6752 203.909 26.3759C205.337 24.9466 206.116 23.1276 205.986 21.0487V6.75638H201.184V8.44548C200.145 7.01624 198.458 6.10673 196.641 6.23666C192.747 6.23666 189.892 9.48492 189.892 14.1624C189.892 19.0998 193.266 21.6984 196.771 21.6984C198.328 21.6984 199.886 21.0487 200.794 19.8794H200.924V21.4385C201.184 22.8677 200.145 24.297 198.588 24.5568C198.328 24.5568 198.069 24.5568 197.809 24.5568C196.122 24.5568 195.343 23.7773 194.954 22.9977H190.021C190.8 26.5058 193.785 28.1949 198.069 28.1949ZM198.069 18.0603C196.122 18.0603 194.954 16.5012 194.954 14.1624C194.954 11.6937 196.251 10.1346 198.069 10.1346C200.145 10.1346 201.313 11.9536 201.313 14.0325C201.313 16.3712 200.275 18.0603 198.069 18.0603ZM10.9052 51.1926C13.5011 51.3225 16.097 50.413 18.0439 48.7239C19.6014 47.1647 20.51 45.2158 20.7695 43.007H15.3182C15.0586 45.2158 13.2415 46.9049 11.035 46.7749C7.79016 46.7749 5.71345 43.7865 5.71345 39.7587C5.71345 35.7309 7.40078 32.7425 11.035 32.7425C13.1117 32.6125 14.9288 34.1717 15.1884 36.2506H20.6397C20.3802 33.7819 19.212 31.5731 17.2651 30.1439C15.448 28.8445 13.2415 28.065 10.9052 28.1949C4.28572 28.1949 0.00253504 33.2622 0.00253504 39.8886C-0.127259 46.2552 4.41552 51.1926 10.9052 51.1926ZM30.5041 47.5545C28.2976 47.5545 27.1294 45.6056 27.1294 42.7471C27.1294 39.8886 28.2976 37.9397 30.5041 37.9397C32.7106 37.9397 33.8787 39.8886 33.8787 42.7471C33.8787 45.6056 32.7106 47.5545 30.5041 47.5545ZM30.5041 51.1926C35.0469 51.4524 38.8109 47.9443 38.9407 43.3968C38.9407 43.1369 38.9407 42.877 38.9407 42.7471C39.0705 38.1995 35.566 34.4316 31.153 34.3016C30.8935 34.3016 30.6339 34.3016 30.5041 34.3016C25.9613 34.0418 22.1973 37.5499 21.9377 42.0974C21.9377 42.3573 21.9377 42.4872 21.9377 42.7471C21.8079 47.2947 25.3123 51.0626 29.8551 51.1926C30.1147 51.1926 30.2445 51.1926 30.5041 51.1926ZM40.7578 50.6729H45.8198V41.7077C45.8198 39.7587 46.7283 38.4594 48.2858 38.4594C49.8433 38.4594 50.4923 39.4988 50.4923 41.1879V50.6729H55.5543V41.7077C55.5543 39.7587 56.4628 38.4594 58.0204 38.4594C59.5779 38.4594 60.2268 39.4988 60.2268 41.1879V50.6729H65.2888V40.2784C65.2888 36.6404 63.4717 34.1717 59.8375 34.1717C57.7608 34.1717 55.8139 35.2111 54.7755 37.0302C53.9967 35.2111 52.1796 34.1717 50.2327 34.1717C48.2858 34.1717 46.3389 35.2111 45.4304 36.9002H45.3006V34.6914H40.4982V50.6729H40.7578ZM67.7549 56H72.8169V49.1137C73.8552 50.5429 75.5425 51.3225 77.3596 51.3225C81.513 51.3225 84.3685 48.0742 84.3685 42.877C84.3685 38.0696 81.7726 34.4316 77.4894 34.4316C75.5425 34.4316 73.7254 35.3411 72.6871 36.7703V34.6914H67.8847V56H67.7549ZM76.0617 47.2947C73.8552 47.2947 72.6871 45.4756 72.6871 42.877C72.6871 40.2784 73.8552 38.3295 76.0617 38.3295C78.2682 38.3295 79.3066 40.1485 79.3066 42.877C79.1768 45.6056 78.0086 47.2947 76.0617 47.2947ZM90.7284 51.0626C92.5455 51.1926 94.3626 50.413 95.401 48.8538C95.401 49.5035 95.6606 50.0232 95.9201 50.6729H100.852V50.413C100.463 50.1531 100.333 49.3735 100.333 48.0742V40.1485C100.463 38.3295 99.6842 36.6404 98.2564 35.6009C96.6989 34.5615 94.8818 34.1717 93.0647 34.3016C88.2623 34.3016 85.926 36.7703 85.7962 39.7587H90.4688C90.5986 38.4594 91.3774 37.6798 93.0647 37.6798C94.6222 37.6798 95.2712 38.3295 95.2712 39.3689C95.2712 40.4084 94.2328 40.7981 91.2476 41.1879C88.0027 41.5777 85.1473 42.7471 85.1473 46.2552C85.4069 49.3736 87.6133 51.0626 90.7284 51.0626ZM92.4157 47.8144C91.1178 47.8144 90.2092 47.2947 90.2092 45.9954C90.2092 44.826 90.988 44.3063 92.9349 43.7865C93.8435 43.6566 94.752 43.2668 95.5308 43.007V44.9559C95.5308 46.5151 94.2328 47.8144 92.6753 47.8144C92.6753 47.8144 92.5455 47.8144 92.4157 47.8144ZM102.929 50.6729H107.991V41.8376C107.991 39.8886 109.159 38.4594 110.846 38.4594C112.534 38.4594 113.313 39.6288 113.313 41.3179V50.6729H118.374V40.2784C118.374 36.7703 116.298 34.1717 112.793 34.1717C110.846 34.1717 108.9 35.0812 107.861 36.7703H107.731V34.6914H102.799L102.929 50.6729ZM120.97 56H124.215C127.46 56 128.888 54.7007 130.186 50.9327L135.637 34.6914H130.575L128.498 41.4478C127.979 43.007 127.59 45.0858 127.59 45.0858C127.59 45.0858 127.071 43.007 126.551 41.4478L124.345 34.6914H119.023L123.696 47.0348C124.215 48.0742 124.475 49.2436 124.605 50.2831C124.605 51.3225 123.956 51.9722 122.528 51.9722H120.841V56H120.97Z" fill="#B2C0D6"></path>
</svg>
