<?xml version="1.0" encoding="UTF-8"?>
<svg xmlns="http://www.w3.org/2000/svg" width="256" height="47" viewBox="0 0 256 47" fill="none">
  <path d="M194.003 14.7528C194.898 14.7528 195.581 14.0279 195.581 13.1751C195.581 12.2798 194.856 11.5975 194.003 11.5975C193.108 11.5975 192.425 12.3224 192.425 13.1751C192.425 14.0279 193.15 14.7528 194.003 14.7528ZM166.459 33.3856H161.641V21.5748H164.242C167.951 21.5748 168.292 23.1951 168.292 25.8813H168.847V16.5009H168.292C168.292 18.8034 167.951 21.0205 164.284 21.0205H161.641V9.6362H167.184C170.936 9.6362 173.622 11.0006 173.622 15.0939H174.176L173.75 9.0819H156.567V9.6362H158.059V33.3856H156.567V33.9399H175.541V26.6914H174.944C174.944 32.7034 172.172 33.3856 166.459 33.3856ZM195.751 18.6755C195.026 19.4003 193.918 19.4429 192.767 19.4429H191.573V19.9972H192.767V33.3429H191.573V33.8972H196.945V33.3429H195.751V18.6755ZM182.406 33.3856H181.212V7.9733C180.487 8.78343 179.378 8.86871 178.227 8.86871H177.033V9.42301H178.227V33.3856H177.033V33.9399H182.406V33.3856ZM189.739 33.3856H188.545V7.9733C187.821 8.78343 186.712 8.86871 185.561 8.86871H184.367V9.42301H185.561V33.3856H184.367V33.9399H189.739V33.3856ZM254.677 33.3856V22.6834C254.677 20.5942 253.611 18.6755 249.859 18.6755C247.301 18.6755 245.51 20.5942 244.614 22.2997H244.529V18.6755C243.89 19.4429 243.25 19.4429 241.544 19.4429H240.393V19.9972H241.544V33.3429H240.393V33.8972H245.595V33.3429H244.529V23.4083C245.169 22.2144 246.704 19.2298 249.646 19.2298C250.797 19.2298 251.735 19.8693 251.735 21.788V33.3429H250.584V33.8972H255.871V33.3429H254.677V33.3856ZM233.955 30.8273C233.955 31.5521 232.804 33.5135 230.16 33.5135C227.9 33.5135 227.602 32.0212 227.602 30.0598C227.602 26.265 230.8 26.2224 233.401 26.2224H233.998V30.8273H233.955ZM237.963 33.5988C237.025 33.5988 236.897 32.7034 236.897 32.0638V22.8113C236.897 20.0825 233.699 18.7181 231.056 18.7181C227.517 18.7181 225.598 20.6794 225.598 22.5129C225.598 23.7067 226.152 24.4742 227.133 24.4742C228.071 24.4742 228.753 23.8347 228.753 22.9819C228.753 21.4043 227.602 21.788 227.602 20.9353C227.602 19.6561 229.99 19.2724 231.013 19.2724C232.335 19.2724 233.912 19.6561 233.912 21.319V25.6681H233.23C229.606 25.6681 224.319 26.6488 224.319 30.6141C224.319 33.0018 225.982 34.4089 228.753 34.4089C231.098 34.4089 232.676 33.812 233.87 32.2344H233.955C234.211 33.4709 235.405 34.4089 237.067 34.4089C238.602 34.4089 239.498 33.684 240.18 32.4902L239.796 32.1917C239.285 32.9166 238.773 33.5988 237.963 33.5988ZM33.684 21.1485V24.7727H28.8233V35.0485C32.8313 33.1724 35.7307 29.335 36.2423 24.7727H39.8666C39.1844 32.6181 33.0018 38.9285 25.1991 39.7813V6.94999C32.746 7.76012 38.758 13.6868 39.7813 21.1485H36.1144C35.3896 16.9273 32.5755 13.431 28.8233 11.6828V21.1485H33.684ZM21.6175 39.7813C13.3457 38.8859 6.90736 31.8506 6.90736 23.3656C6.90736 14.8807 13.3457 7.84539 21.6175 6.94999V39.7813ZM23.3656 4.34907C12.8767 4.34907 4.34908 12.8767 4.34908 23.3656C4.34908 33.8546 12.8767 42.3822 23.3656 42.3822C33.8546 42.3822 42.3822 33.8546 42.3822 23.3656C42.3822 12.8767 33.8546 4.34907 23.3656 4.34907ZM23.3656 44.3862C11.7681 44.3862 2.34509 34.9632 2.34509 23.3656C2.34509 11.7681 11.7681 2.34509 23.3656 2.34509C34.9632 2.34509 44.3862 11.7681 44.3862 23.3656C44.3862 34.9632 34.9632 44.3862 23.3656 44.3862ZM23.3656 0C10.489 0 0 10.489 0 23.3656C0 36.2423 10.489 46.7313 23.3656 46.7313C36.2423 46.7313 46.7313 36.2423 46.7313 23.3656C46.7313 10.489 36.2423 0 23.3656 0ZM17.9933 35.0911V11.6828C13.5589 13.7294 10.5316 18.2064 10.5316 23.3656C10.489 28.5675 13.5589 33.0018 17.9933 35.0911ZM203.469 33.3856H202.403V23.4083C203.426 20.8926 205.004 19.2298 207.136 19.2298C208.543 19.2298 209.438 19.912 209.438 21.6601V33.3429H208.287V33.8972H213.489V33.3429H212.423V23.9199C213.148 21.4469 214.938 19.2298 216.985 19.2298C218.307 19.2298 219.458 19.784 219.458 22.3423V33.3429H218.307V33.8972H223.594V33.3429H222.443V22.9819C222.443 20.7647 221.249 18.7181 217.625 18.6755C214.981 18.6328 213.19 20.4236 212.508 22.4702H212.423C212.124 19.315 209.864 18.6755 207.605 18.6755C204.961 18.6755 203.469 20.4236 202.531 22.1291H202.445V18.6755C201.806 19.4429 201.166 19.4429 199.461 19.4429H198.309V19.9972H199.461V33.3429H198.309V33.8972H203.511V33.3856H203.469Z" fill="#B2C0D6"></path>
  <path d="M73.5505 16.4592C73.38 16.0328 73.1668 15.5638 72.9536 15.1374C73.1668 15.5212 73.38 15.9902 73.5505 16.4592ZM61.3561 33.2586H58.414V9.7224H60.0343C69.2441 9.7224 70.3101 16.4592 70.3101 21.4905C70.3527 31.212 65.492 33.2586 61.3561 33.2586ZM62.422 8.95492H52.8711V9.7224H54.6193V33.2586H52.8711V34.0261H62.422C69.7984 34.0261 74.5312 29.1227 74.5312 21.4905C74.5312 18.6338 73.5932 15.6065 72.0156 13.4319C69.9263 10.5325 66.6005 8.95492 62.422 8.95492ZM138.531 30.8282C138.531 31.4678 137.422 33.4292 134.821 33.4292C132.732 33.4292 132.348 32.1927 132.348 30.0608C132.348 26.3086 135.632 26.3086 138.019 26.3086H138.531V30.8282ZM144.415 32.1074C143.903 32.8322 143.434 33.4718 142.667 33.4718C141.985 33.4718 141.729 33.0028 141.729 32.0221V22.7696C141.729 21.4905 141.047 20.3819 139.767 19.6144C138.659 18.9322 137.209 18.5911 135.759 18.5911C132.178 18.5911 130.216 20.5951 130.216 22.4712C130.216 23.7503 130.856 24.5604 131.879 24.5604C132.86 24.5604 133.585 23.8782 133.585 22.9828C133.585 22.0022 133.159 21.7463 132.817 21.4905C132.604 21.32 132.434 21.2347 132.434 20.9362C132.434 19.785 134.736 19.3586 135.759 19.3586C137.039 19.3586 138.574 19.6997 138.574 21.32V25.5411H138.019C133.67 25.5411 129.023 26.8629 129.023 30.5724C129.023 33.0028 130.728 34.4525 133.542 34.4525C135.973 34.4525 137.508 33.8129 138.659 32.3206C139 33.5997 140.279 34.4525 141.814 34.4525C143.221 34.4525 144.244 33.8129 145.012 32.4911L145.055 32.4058L144.5 32.0221L144.415 32.1074ZM170.126 42.8522H174.048V41.7436H170.126V39.6969H174.347V38.5031H168.761V46.2632H174.432V45.0693H170.126V42.8522ZM161.555 42.042H159.338V39.6117H161.555C162.28 39.6117 162.92 39.8249 162.92 40.8055C162.877 41.6157 162.408 42.042 161.555 42.042ZM162.963 42.5963C163.218 42.4684 164.242 42.1273 164.242 40.635C164.242 39.3132 163.389 38.5457 161.683 38.5457H157.974V46.3058H159.338V43.108H161.342C162.579 43.108 162.877 43.7476 162.877 45.1546C162.877 45.5384 162.877 45.9647 163.09 46.3058H164.54C164.242 46.0074 164.114 45.1546 164.114 44.2592C164.114 43.0227 163.432 42.6816 162.963 42.5963ZM86.7683 27.8862C86.7683 31.2973 86.4699 33.685 82.7604 33.685C79.0509 33.685 78.7524 31.2973 78.7524 27.8862V25.1147C78.7524 21.7037 79.0509 19.316 82.7604 19.316C86.4699 19.316 86.7683 21.7037 86.7683 25.1147V27.8862ZM82.803 18.5485C78.0702 18.5485 75.2134 22.5991 75.2134 26.4792C75.2134 30.4019 78.0702 34.4098 82.803 34.4098C87.5358 34.4098 90.3926 30.3592 90.3926 26.4792C90.3926 22.5991 87.5358 18.5485 82.803 18.5485ZM113.588 28.6111C110.774 28.6111 110.774 26.266 110.774 23.9635C110.774 22.1301 110.774 19.316 113.588 19.316C116.402 19.316 116.402 21.1494 116.402 23.9635C116.402 26.4365 116.402 28.6111 113.588 28.6111ZM117.041 35.1347C119.216 35.1347 120.239 35.8595 120.239 37.3945C120.239 40.2086 117.596 43.108 113.204 43.108C108.386 43.108 108.002 40.0381 108.002 39.0574C108.002 36.8402 108.983 35.5611 111.115 35.092H117.041V35.1347ZM120.452 18.5485C119.259 18.5485 118.363 19.316 117.724 20.0408C116.743 19.1028 115.293 18.5485 113.588 18.5485C110.305 18.5485 107.618 21.0641 107.618 24.1767C107.618 26.1807 108.812 27.2893 110.134 28.1847C107.874 28.27 106.808 29.4212 106.808 31.7663C106.808 33.8129 107.789 35.0068 109.494 35.1347C107.917 35.9022 106.169 37.3945 106.169 39.2279C106.169 42.6816 109.75 43.8755 113.076 43.8755C115.293 43.8755 117.34 43.1933 118.832 41.9141C120.495 40.5497 121.348 38.5884 121.348 36.3285C121.348 33.5997 119.941 32.15 117.34 32.15H109.068C108.215 32.15 107.618 31.5957 107.618 30.7856C107.618 29.4212 108.727 28.6963 110.944 28.6537C110.987 28.6537 111.029 28.6963 111.072 28.6963C111.498 28.9095 112.266 29.2506 113.63 29.2506C114.995 29.2506 116.53 28.6963 117.638 27.7157C118.875 26.6923 119.557 25.3279 119.557 23.9209C119.557 22.6844 119.045 21.3199 118.193 20.3819C118.619 19.8276 119.259 19.3586 119.813 19.2307C119.685 19.4439 119.557 19.6997 119.557 20.254C119.557 20.8509 120.069 21.4479 120.793 21.4479C121.476 21.4479 122.286 21.1068 122.286 20.1261C122.328 19.2307 121.604 18.5485 120.452 18.5485ZM104.634 18.4206L104.463 18.5911C103.781 19.2733 102.672 19.3586 101.564 19.3586H100.285V20.1261H101.436V28.3979C101.436 31.0841 99.176 33.685 96.8735 33.685C95.5944 33.685 94.7843 32.7896 94.7843 31.2973V18.4206L94.6137 18.5911C93.9315 19.2733 92.8229 19.3586 91.7143 19.3586H90.4352V20.1261H91.6291V30.4445C91.6291 31.6384 92.0981 34.4525 96.5324 34.4525C99.5171 34.4525 101.009 31.8942 101.436 31.0414V34.0261H105.785V33.2586H104.591V18.4206H104.634ZM126.848 7.67578L126.678 7.88897C125.995 8.65646 124.887 8.74173 123.778 8.74173H122.499V9.50921H123.693V33.2586H122.499V34.0261H128.042V33.2586H126.848V7.67578ZM151.663 24.6457L150.47 24.5604C147.954 24.3899 146.845 23.665 146.845 22.0448C146.845 20.3819 148.082 19.316 150.001 19.316C152.943 19.316 153.795 21.3626 154.009 23.0681V23.1534H154.648L154.52 18.7617H153.838V19.1454C153.838 19.6144 153.795 19.785 153.71 19.785C153.625 19.785 153.412 19.6571 153.198 19.5292C152.559 19.1454 151.493 18.5485 150.128 18.5485C147.485 18.5485 145.609 20.4672 145.609 23.196C145.609 27.0334 148.039 27.2893 150.214 27.5451L150.555 27.5877C152.303 27.7583 154.094 27.9715 154.094 30.4871C154.094 32.3632 152.729 33.685 150.768 33.685C148.124 33.685 146.462 31.9795 145.95 28.7816V28.6963H145.31L145.396 34.1114V34.1966H146.12V34.1114C146.12 33.9408 146.163 33.7703 146.163 33.6423C146.206 33.088 146.206 32.8749 146.462 32.8749C146.675 32.8749 146.931 33.0454 147.229 33.2586C147.911 33.7276 148.935 34.4098 150.811 34.4098C153.71 34.4098 155.842 32.0647 155.842 28.8669C155.799 26.2233 154.392 24.8163 151.663 24.6457ZM180.615 43.1933L181.809 39.8675H181.851L183.002 43.1933H180.615ZM181.084 38.5031L178.099 46.2632H179.506L180.231 44.2166H183.343L184.068 46.2632H185.518L182.533 38.5031H181.084ZM250.584 42.8522H254.506V41.7436H250.584V39.6969H254.805V38.5031H249.219V46.2632H254.89V45.0693H250.584V42.8522ZM232.932 43.1933L234.125 39.8675H234.168L235.319 43.1933H232.932ZM233.401 38.5031L230.416 46.2632H231.823L232.548 44.2166H235.66L236.385 46.2632H237.835L234.85 38.5031H233.401ZM239.882 39.6969H242.355V46.3058H243.719V39.6969H246.192V38.5031H239.924V39.6969H239.882ZM190.933 38.5031H189.569V46.2632H194.856V45.0693H190.89V38.5031H190.933ZM218.008 42.042C217.624 41.9141 215.876 41.4877 215.748 41.4451C215.194 41.2745 214.81 40.9761 214.81 40.4644C214.81 39.6969 215.62 39.4411 216.217 39.4411C217.155 39.4411 217.838 39.8249 217.88 40.8055H219.245C219.245 39.1853 217.88 38.3325 216.26 38.3325C214.853 38.3325 213.403 39.0574 213.403 40.635C213.403 41.4451 213.787 42.2552 215.109 42.5963C216.175 42.8948 216.9 43.0227 217.411 43.2359C217.71 43.3638 218.051 43.577 218.051 44.1739C218.051 44.7709 217.624 45.3678 216.388 45.3678C215.322 45.3678 214.427 44.8988 214.427 43.7049H213.062C213.105 45.6236 214.512 46.4764 216.303 46.4764C217.838 46.4764 219.373 45.7942 219.373 44.046C219.501 43.2359 219.032 42.3405 218.008 42.042ZM222.315 39.6969H224.788V46.3058H226.152V39.6969H228.625V38.5031H222.357V39.6969H222.315ZM204.663 42.8522H208.585V41.7436H204.663V39.6969H208.884V38.5031H203.298V46.2632H208.969V45.0693H204.663V42.8522ZM234.083 15.308H234.936V11.9396H236.172V11.2147H232.846V11.9396H234.083V15.308ZM242.141 15.308H242.951V11.2574H242.312C242.312 11.3 242.312 11.3426 242.269 11.4279C242.227 11.5558 242.184 11.6411 242.099 11.7264C242.013 11.8117 241.885 11.8969 241.715 11.9396C241.63 11.9822 241.459 11.9822 241.203 11.9822V12.5365H242.141V15.308ZM249.859 15.308H250.669V11.2574H249.987C249.987 11.3 249.987 11.3426 249.944 11.4279C249.901 11.5558 249.859 11.6411 249.774 11.7264C249.688 11.8117 249.56 11.8969 249.39 11.9396C249.305 11.9822 249.134 11.9822 248.878 11.9822V12.5365H249.816V15.308H249.859ZM227.389 14.5405H225.129V13.4746H227.133V12.7497H225.129V11.8969H227.303V11.1721H224.319V15.2653H227.431V14.5405H227.389ZM253.355 15.308H254.165V11.2574H253.483C253.483 11.3 253.483 11.3426 253.44 11.4279C253.398 11.5558 253.355 11.6411 253.27 11.7264C253.185 11.8117 253.057 11.8969 252.886 11.9396C252.801 11.9822 252.63 11.9822 252.374 11.9822V12.5365H253.312V15.308H253.355ZM237.494 14.4552H236.641V15.308H237.494V14.4552ZM245.851 12.0249C245.936 11.9396 246.064 11.8969 246.192 11.8969C246.362 11.8969 246.533 11.9822 246.618 12.1101C246.704 12.238 246.789 12.4086 246.789 12.6644C246.789 12.9629 246.704 13.1335 246.533 13.2614C246.448 13.304 246.32 13.3466 246.235 13.3466C246.021 13.3466 245.893 13.304 245.766 13.1761C245.68 13.0482 245.638 12.8776 245.638 12.6218C245.638 12.3233 245.723 12.1101 245.851 12.0249ZM246.064 13.9862C246.277 13.9862 246.448 13.9436 246.618 13.8583C246.704 13.8157 246.789 13.7304 246.832 13.6451C246.832 13.9436 246.789 14.1994 246.704 14.3273C246.576 14.6258 246.405 14.7537 246.149 14.7537C246.021 14.7537 245.893 14.7111 245.808 14.6258C245.723 14.5405 245.68 14.4552 245.638 14.3273H244.828C244.87 14.6684 244.998 14.9242 245.254 15.0948C245.51 15.2653 245.766 15.3506 246.064 15.3506C246.704 15.3506 247.13 15.0522 247.386 14.4126C247.514 14.0715 247.556 13.6877 247.556 13.1761C247.556 12.6644 247.471 12.2807 247.343 11.9822C247.13 11.4279 246.704 11.1721 246.064 11.1721C245.68 11.1721 245.339 11.3 245.083 11.5558C244.828 11.8117 244.7 12.1528 244.7 12.6218C244.7 13.0482 244.828 13.3466 245.083 13.5598C245.424 13.8583 245.723 13.9862 246.064 13.9862ZM230.714 14.6258C230.586 14.6684 230.416 14.7111 230.203 14.7111C229.862 14.7111 229.606 14.6258 229.478 14.4552C229.393 14.37 229.35 14.242 229.307 14.0288H228.497C228.497 14.4552 228.668 14.7963 228.966 15.0522C229.265 15.308 229.691 15.4359 230.245 15.4359C230.757 15.4359 231.183 15.308 231.482 15.0522C231.78 14.7963 231.908 14.4979 231.908 14.1141C231.908 13.7304 231.78 13.4746 231.524 13.2614C231.354 13.1335 231.141 13.0482 230.8 12.9629L230.075 12.7923C229.819 12.7071 229.606 12.6644 229.52 12.6218C229.393 12.5365 229.307 12.4512 229.307 12.2807C229.307 12.1101 229.393 11.9822 229.52 11.8969C229.648 11.8117 229.819 11.769 230.075 11.769C230.288 11.769 230.459 11.8117 230.586 11.8543C230.8 11.9396 230.885 12.1528 230.928 12.366H231.738C231.738 11.9396 231.567 11.5985 231.269 11.3853C230.97 11.1721 230.586 11.0442 230.16 11.0442C229.648 11.0442 229.222 11.1721 228.966 11.4279C228.71 11.6838 228.54 11.9822 228.54 12.3233C228.54 12.7071 228.668 13.0055 228.966 13.2187C229.137 13.3466 229.435 13.4319 229.862 13.5172L230.288 13.6025C230.544 13.6451 230.757 13.7304 230.842 13.773C230.97 13.8583 231.013 13.9436 231.013 14.0715C231.098 14.4126 230.97 14.5405 230.714 14.6258Z" fill="#B2C0D6"></path>
</svg>
