<?xml version="1.0" encoding="UTF-8"?>
<svg xmlns="http://www.w3.org/2000/svg" width="176" height="44" viewBox="0 0 176 44" fill="none">
  <g clip-path="url(#clip0_277_28)">
    <path d="M0 43.6452L16.3362 0.402344H24.8868L41.2229 43.6452H33.5275L29.387 32.9569H11.4758L7.42552 43.6452H0ZM13.5009 26.9003H27.4069L20.4314 8.06225L13.5009 26.9003Z" fill="#B2C0D6"></path>
    <path d="M43.3828 0.400391H50.1332V43.6433H43.3828V0.400391Z" fill="#B2C0D6"></path>
    <path d="M56.5235 2.49312C57.9636 1.06802 60.2138 0.355469 63.274 0.355469H72.5447V6.234H64.219C63.1391 6.234 62.329 6.50121 61.8339 6.9911C61.3389 7.48096 61.0688 8.28259 61.0688 9.35142V12.0235H72.4547V17.902H61.0688V43.643H54.3184V8.86154C54.3184 6.05588 55.0385 3.91821 56.5235 2.49312Z" fill="#B2C0D6"></path>
    <path d="M93.9214 11.9805V18.2153H89.4662C86.6759 18.2153 84.6508 19.106 83.3907 20.8874C82.1305 22.6687 81.5006 24.94 81.5006 27.701V43.6444H74.75V12.025H80.7355L81.5006 16.7902C82.4006 15.3206 83.6158 14.1627 85.0558 13.3165C86.4959 12.4704 88.476 12.0696 90.9062 12.0696H93.9214V11.9805Z" fill="#B2C0D6"></path>
    <path d="M96.2167 19.3275C97.5217 16.8781 99.3669 14.9631 101.707 13.6271C104.047 12.2911 106.747 11.623 109.808 11.623C112.868 11.623 115.613 12.2465 117.953 13.4935C120.293 14.7405 122.138 16.4773 123.489 18.7485C124.839 21.0199 125.559 23.6919 125.559 26.7202C125.559 27.5663 125.514 28.368 125.379 29.2587H101.302V29.6149C101.482 32.3761 102.337 34.5583 103.912 36.1615C105.487 37.7648 107.602 38.5663 110.213 38.5663C112.283 38.5663 114.038 38.0765 115.478 37.0967C116.873 36.117 117.818 34.7809 118.268 32.9996H125.019C124.434 36.2061 122.858 38.8336 120.293 40.9267C117.728 42.9753 114.533 43.9996 110.708 43.9996C107.377 43.9996 104.452 43.3315 101.977 41.9956C99.5018 40.6594 97.5667 38.7891 96.2167 36.3396C94.8665 33.8902 94.1914 31.0845 94.1914 27.8782C94.2364 24.6271 94.9115 21.7768 96.2167 19.3275ZM118.718 24.3598C118.448 22.0441 117.503 20.2627 115.928 18.9713C114.353 17.6797 112.418 17.0117 110.033 17.0117C107.828 17.0117 105.937 17.6797 104.317 19.0158C102.697 20.3518 101.797 22.1332 101.527 24.3598H118.718Z" fill="#B2C0D6"></path>
    <path d="M160.167 0.400391V43.6433H154.316L153.506 38.8781C150.986 42.3073 147.476 43.9995 143.065 43.9995C140.14 43.9995 137.53 43.3316 135.28 42.04C132.985 40.7486 131.184 38.8781 129.924 36.4287C128.619 33.9794 127.989 31.0846 127.989 27.789C127.989 24.5825 128.664 21.7324 129.969 19.283C131.274 16.8336 133.075 14.9186 135.37 13.5826C137.665 12.2465 140.23 11.5785 143.11 11.5785C145.451 11.5785 147.476 11.9793 149.231 12.8255C150.986 13.6716 152.381 14.8295 153.461 16.2992V0.400391H160.167ZM150.941 35.449C152.651 33.5339 153.506 30.9955 153.506 27.9226C153.506 24.7607 152.651 22.1777 150.941 20.2182C149.231 18.2587 146.981 17.2789 144.19 17.2789C141.4 17.2789 139.15 18.2587 137.44 20.2182C135.73 22.1777 134.875 24.7161 134.875 27.789C134.875 30.9064 135.73 33.445 137.44 35.4045C139.15 37.3639 141.4 38.3437 144.19 38.3437C146.981 38.3882 149.231 37.4085 150.941 35.449Z" fill="#B2C0D6"></path>
    <path d="M169.257 12.3806C172.711 12.3806 175.512 9.60907 175.512 6.19029C175.512 2.77149 172.711 0 169.257 0C165.802 0 163.001 2.77149 163.001 6.19029C163.001 9.60907 165.802 12.3806 169.257 12.3806Z" fill="#B2C0D6"></path>
  </g>
  <defs>
    <clipPath id="clip0_277_28">
      <rect width="176" height="44" fill="white"></rect>
    </clipPath>
  </defs>
</svg>
